<svg width="2044" height="1081" viewBox="0 0 2044 1081" fill="none" xmlns="http://www.w3.org/2000/svg">
<path opacity="0.0144928" d="M1781.83 1075.77C1790.89 1080.58 1802.03 1078.82 1809.16 1071.45L2035.53 837.32C2039.75 832.961 2042.07 827.114 2042 821.052L2036.38 354.897C2036.32 350.13 2034.78 345.497 2031.98 341.642L1791.79 11.4722C1786.7 4.48119 1778.12 0.931413 1769.59 2.28373L1489.08 46.7114C1480.54 48.0639 1473.48 54.0901 1470.81 62.3105L1344.4 450.544C1342.92 455.078 1342.89 459.958 1344.31 464.51L1483.02 909.586C1484.82 915.374 1488.84 920.217 1494.19 923.06L1781.83 1075.77Z" stroke="url(#paint0_linear_3_108)" stroke-width="4"/>
<path opacity="0.0289855" d="M1730.67 1074.28C1739.45 1079.53 1750.63 1078.35 1758.13 1071.4L1995.09 851.409C1999.54 847.278 2002.17 841.555 2002.42 835.488L2021.25 373.969C2021.45 369.19 2020.15 364.469 2017.54 360.463L1796.41 21.4213C1791.7 14.1893 1783.33 10.2068 1774.74 11.1093L1493.97 40.619C1485.39 41.5215 1478.03 47.1569 1474.92 55.2117L1329.12 432.819C1327.39 437.281 1327.11 442.169 1328.29 446.802L1442.67 894.321C1444.17 900.204 1447.94 905.254 1453.15 908.369L1730.67 1074.28Z" stroke="url(#paint1_linear_3_108)" stroke-width="4"/>
<path opacity="0.0434783" d="M1679.9 1071.24C1688.38 1076.91 1699.58 1076.32 1707.41 1069.8L1954.1 864.411C1958.78 860.52 1961.72 854.938 1962.29 848.883L2005.07 393.267C2005.52 388.491 2004.46 383.695 2002.05 379.548L1800.26 32.7151C1795.93 25.2619 1787.79 20.8593 1779.17 21.3106L1498.94 35.9972C1490.33 36.4485 1482.69 41.678 1479.16 49.5436L1314.73 415.57C1312.76 419.945 1312.21 424.826 1313.16 429.529L1403.33 878.177C1404.53 884.139 1408.04 889.383 1413.09 892.764L1679.9 1071.24Z" stroke="url(#paint2_linear_3_108)" stroke-width="4"/>
<path opacity="0.057971" d="M1629.61 1066.69C1637.77 1072.76 1648.94 1072.76 1657.1 1066.69L1912.65 876.307C1917.53 872.669 1920.77 867.241 1921.66 861.216L1987.83 412.736C1988.53 407.976 1987.72 403.115 1985.52 398.838L1803.27 45.2999C1799.32 37.6456 1791.43 32.8356 1782.82 32.8356L1503.89 32.8356C1495.28 32.8356 1487.39 37.6456 1483.44 45.2999L1301.19 398.838C1298.99 403.115 1298.18 407.976 1298.88 412.736L1365.05 861.216C1365.94 867.241 1369.18 872.669 1374.06 876.307L1629.61 1066.69Z" stroke="url(#paint3_linear_3_108)" stroke-width="4"/>
<path opacity="0.0724638" d="M1579.88 1060.66C1587.69 1067.12 1598.82 1067.7 1607.26 1062.09L1870.78 887.08C1875.86 883.706 1879.39 878.451 1880.6 872.473L1969.52 432.317C1970.48 427.585 1969.92 422.673 1967.93 418.275L1805.37 59.1162C1801.82 51.282 1794.2 46.0792 1785.62 45.629L1508.75 31.1189C1500.16 30.669 1492.04 35.0469 1487.69 42.4676L1288.48 382.666C1286.04 386.832 1284.97 391.659 1285.43 396.465L1327.86 843.506C1328.43 849.578 1331.4 855.172 1336.1 859.059L1579.88 1060.66Z" stroke="url(#paint4_linear_3_108)" stroke-width="4"/>
<path opacity="0.0869565" d="M1530.77 1053.2C1538.23 1060.03 1549.27 1061.19 1557.98 1056.06L1828.56 896.722C1833.82 893.622 1837.64 888.556 1839.16 882.64L1950.16 451.949C1951.37 447.26 1951.06 442.309 1949.29 437.801L1806.5 74.104C1803.37 66.1103 1796.04 60.5297 1787.5 59.632L1513.44 30.8281C1504.9 29.9305 1496.57 33.8651 1491.84 41.0316L1276.56 367.093C1273.89 371.134 1272.56 375.915 1272.77 380.753L1291.79 825.109C1292.05 831.212 1294.73 836.961 1299.24 841.088L1530.77 1053.2Z" stroke="url(#paint5_linear_3_108)" stroke-width="4"/>
<path opacity="0.101449" d="M1482.37 1044.37C1489.45 1051.54 1500.38 1053.28 1509.33 1048.64L1786.06 905.224C1791.49 902.409 1795.58 897.545 1797.42 891.709L1929.73 471.575C1931.19 466.941 1931.15 461.965 1929.6 457.359L1806.61 90.1982C1803.89 82.0669 1796.87 76.1253 1788.4 74.7836L1517.9 31.9401C1509.43 30.5985 1500.91 34.0797 1495.81 40.9715L1265.38 352.156C1262.49 356.061 1260.91 360.78 1260.87 365.637L1256.88 806.096C1256.82 812.214 1259.21 818.103 1263.5 822.459L1482.37 1044.37Z" stroke="url(#paint6_linear_3_108)" stroke-width="4"/>
<path opacity="0.115942" d="M1434.74 1034.2C1441.43 1041.71 1452.22 1044 1461.38 1039.86L1743.33 912.58C1748.92 910.059 1753.27 905.414 1755.41 899.674L1908.25 491.138C1909.96 486.573 1910.18 481.583 1908.86 476.889L1805.65 107.333C1803.35 99.0849 1796.65 92.7991 1788.28 91.0187L1522.03 34.4271C1513.66 32.6467 1504.98 35.6664 1499.53 42.264L1254.92 337.889C1251.81 341.644 1249.98 346.289 1249.68 351.154L1223.14 786.536C1222.77 792.653 1224.85 798.665 1228.93 803.24L1434.74 1034.2Z" stroke="url(#paint7_linear_3_108)" stroke-width="4"/>
<path opacity="0.130435" d="M1387.95 1022.76C1394.23 1030.57 1404.84 1033.42 1414.19 1029.79L1700.45 918.792C1706.17 916.573 1710.77 912.159 1713.22 906.532L1885.74 510.581C1887.69 506.097 1888.17 501.108 1887.09 496.337L1803.56 125.437C1801.68 117.096 1795.33 110.484 1787.07 108.271L1525.78 38.2586C1517.52 36.0455 1508.72 38.5963 1502.92 44.8809L1245.13 324.324C1241.81 327.918 1239.73 332.476 1239.18 337.335L1190.61 766.497C1189.92 772.596 1191.69 778.718 1195.54 783.501L1387.95 1022.76Z" stroke="url(#paint8_linear_3_108)" stroke-width="4"/>
<path opacity="0.144928" d="M1342.05 1010.11C1347.91 1018.2 1358.33 1021.59 1367.83 1018.49L1657.47 923.861C1663.31 921.952 1668.15 917.783 1670.9 912.285L1862.2 529.847C1864.39 525.458 1865.13 520.483 1864.29 515.647L1800.3 144.442C1798.85 136.028 1792.86 129.109 1784.74 126.471L1529.08 43.4001C1520.96 40.7617 1512.04 42.8375 1505.92 48.792L1235.97 311.492C1232.45 314.914 1230.12 319.371 1229.32 324.212L1159.29 746.051C1158.28 752.116 1159.74 758.332 1163.35 763.311L1342.05 1010.11Z" stroke="url(#paint9_linear_3_108)" stroke-width="4"/>
<path opacity="0.15942" d="M1297.12 996.307C1302.54 1004.66 1312.73 1008.57 1322.36 1006L1614.45 927.793C1620.4 926.201 1625.46 922.29 1628.51 916.936L1837.64 548.881C1840.08 544.601 1841.07 539.653 1840.48 534.765L1795.84 164.272C1794.82 155.809 1789.2 148.603 1781.24 145.548L1531.85 49.813C1523.89 46.758 1514.89 48.3548 1508.47 53.962L1227.39 299.42C1223.68 302.658 1221.11 307.001 1220.05 311.81L1129.2 725.269C1127.87 731.283 1129.02 737.577 1132.37 742.74L1297.12 996.307Z" stroke="url(#paint10_linear_3_108)" stroke-width="4"/>
<path opacity="0.173913" d="M1253.19 981.415C1258.17 990.006 1268.11 994.429 1277.83 992.384L1571.46 930.597C1577.5 929.327 1582.77 925.687 1586.1 920.493L1812.1 567.631C1814.77 563.471 1816.02 558.563 1815.68 553.635L1790.14 184.854C1789.55 176.363 1784.32 168.89 1776.54 165.428L1534.03 57.4554C1526.26 53.9936 1517.21 55.1084 1510.5 60.353L1219.35 288.132C1215.46 291.176 1212.65 295.392 1211.34 300.156L1100.34 704.222C1098.71 710.17 1099.53 716.524 1102.63 721.859L1253.19 981.415Z" stroke="url(#paint11_linear_3_108)" stroke-width="4"/>
<path opacity="0.188406" d="M1210.33 965.502C1214.86 974.306 1224.51 979.224 1234.29 977.714L1528.55 932.287C1534.66 931.344 1540.13 927.985 1543.73 922.966L1785.59 586.044C1788.48 582.017 1790 577.163 1789.91 572.206L1783.16 206.111C1783 197.614 1778.17 189.895 1770.6 186.037L1535.57 66.2841C1528 62.426 1518.92 63.0566 1511.95 67.9242L1211.81 277.651C1207.74 280.491 1204.71 284.568 1203.15 289.274L1072.73 682.981C1070.79 688.846 1071.29 695.246 1074.12 700.739L1210.33 965.502Z" stroke="url(#paint12_linear_3_108)" stroke-width="4"/>
<path opacity="0.202899" d="M1168.57 948.637C1172.64 957.629 1181.98 963.026 1191.8 962.051L1485.79 932.876C1491.95 932.265 1497.6 929.199 1501.47 924.37L1758.14 604.072C1761.25 600.189 1763.02 595.401 1763.18 590.427L1774.88 227.965C1775.16 219.485 1770.74 211.543 1763.39 207.301L1536.41 76.2501C1529.06 72.008 1519.97 72.1544 1512.77 76.6314L1204.72 267.997C1200.49 270.622 1197.23 274.548 1195.42 279.184L1046.37 661.619C1044.12 667.384 1044.29 673.812 1046.84 679.45L1168.57 948.637Z" stroke="url(#paint13_linear_3_108)" stroke-width="4"/>
<path opacity="0.217391" d="M1127.96 930.892C1131.56 940.046 1140.57 945.902 1150.4 945.463L1443.22 932.384C1449.42 932.108 1455.24 929.345 1459.36 924.72L1729.77 621.661C1733.1 617.935 1735.12 613.228 1735.54 608.251L1765.29 250.339C1765.99 241.898 1762 233.754 1754.89 229.14L1536.48 87.304C1529.38 82.6908 1520.32 82.3545 1512.89 86.4289L1198.02 259.187C1193.65 261.589 1190.17 265.351 1188.12 269.904L1021.24 640.203C1018.7 645.854 1018.54 652.294 1020.81 658.064L1127.96 930.892Z" stroke="url(#paint14_linear_3_108)" stroke-width="4"/>
<path opacity="0.231884" d="M1088.54 912.336C1091.66 921.629 1100.32 927.924 1110.12 928.019L1400.91 930.834C1407.12 930.894 1413.09 928.441 1417.47 924.033L1700.52 638.768C1704.06 635.21 1706.33 630.596 1706.99 625.628L1754.36 273.154C1755.49 264.773 1751.92 256.45 1745.08 251.479L1535.75 99.3928C1528.91 94.4225 1519.89 93.6057 1512.27 97.2665L1191.69 251.235C1187.17 253.405 1183.48 256.991 1181.19 261.448L997.355 618.805C994.515 624.327 994.027 630.762 996.002 636.648L1088.54 912.336Z" stroke="url(#paint15_linear_3_108)" stroke-width="4"/>
<path opacity="0.246377" d="M1050.33 893.046C1052.97 902.452 1061.26 909.167 1071.01 909.792L1358.91 928.247C1365.12 928.645 1371.22 926.512 1375.83 922.335L1670.42 655.346C1674.15 651.968 1676.67 647.46 1677.59 642.514L1742.08 296.33C1743.63 288.031 1740.5 279.552 1733.94 274.24L1534.16 112.461C1527.6 107.149 1518.66 105.856 1510.86 109.094L1185.65 244.153C1181.01 246.083 1177.12 249.482 1174.59 253.831L974.686 597.495C971.559 602.871 970.741 609.285 972.421 615.274L1050.33 893.046Z" stroke="url(#paint16_linear_3_108)" stroke-width="4"/>
<path opacity="0.26087" d="M1013.37 873.098C1015.53 882.592 1023.42 889.702 1033.09 890.852L1317.27 924.652C1323.46 925.388 1329.68 923.582 1334.51 919.649L1639.5 671.354C1643.42 668.165 1646.18 663.777 1647.35 658.865L1728.45 319.789C1730.41 311.593 1727.73 302.982 1721.47 297.343L1531.67 126.452C1525.41 120.813 1516.57 119.05 1508.62 121.856L1179.88 237.951C1175.12 239.633 1171.04 242.835 1168.28 247.064L953.225 576.339C949.818 581.556 948.673 587.931 950.051 594.007L1013.37 873.098Z" stroke="url(#paint17_linear_3_108)" stroke-width="4"/>
<path opacity="0.275362" d="M977.68 852.566C979.348 862.122 986.832 869.605 996.388 871.273L1276.04 920.078C1282.19 921.151 1288.51 919.679 1293.55 916.001L1607.8 686.749C1611.9 683.761 1614.89 679.503 1616.32 674.639L1713.46 343.452C1715.82 335.38 1713.6 326.66 1707.65 320.712L1528.24 141.306C1522.29 135.357 1513.57 133.13 1505.5 135.497L1174.31 232.634C1169.45 234.061 1165.19 237.055 1162.2 241.151L932.952 555.403C929.273 560.446 927.802 566.768 928.875 572.917L977.68 852.566Z" stroke="url(#paint18_linear_3_108)" stroke-width="4"/>
<path opacity="0.289855" d="M943.278 831.527C944.459 841.12 951.511 848.952 960.929 851.129L1235.26 914.557C1241.35 915.966 1247.76 914.833 1253 911.421L1575.36 701.494C1579.63 698.716 1582.85 694.603 1584.53 689.797L1697.11 367.241C1699.87 359.313 1698.1 350.508 1692.48 344.268L1523.83 156.962C1518.21 150.722 1509.64 148.039 1501.47 149.962L1168.91 228.208C1163.96 229.373 1159.53 232.149 1156.32 236.1L913.847 534.754C909.905 539.609 908.11 545.859 908.874 552.066L943.278 831.527Z" stroke="url(#paint19_linear_3_108)" stroke-width="4"/>
<path opacity="0.304348" d="M910.18 810.059C910.875 819.664 917.479 827.819 926.73 830.496L1194.99 908.123C1201.01 909.864 1207.48 909.077 1212.9 905.942L1542.22 715.552C1546.65 712.995 1550.09 709.037 1552.02 704.303L1679.41 391.078C1682.56 383.315 1681.25 374.448 1675.98 367.935L1518.41 173.358C1513.14 166.844 1504.74 163.715 1496.49 165.189L1163.62 224.672C1158.59 225.57 1154 228.119 1150.58 231.914L895.881 514.455C891.687 519.108 889.572 525.27 890.024 531.518L910.18 810.059Z" stroke="url(#paint20_linear_3_108)" stroke-width="4"/>
<path opacity="0.318841" d="M878.393 788.238C878.605 797.83 884.747 806.284 893.804 809.449L1155.27 900.813C1161.19 902.883 1167.71 902.443 1173.3 899.595L1508.42 728.89C1513 726.561 1516.66 722.771 1518.83 718.122L1660.37 414.886C1663.91 407.306 1663.05 398.402 1658.13 391.634L1511.95 190.43C1507.03 183.663 1498.83 180.097 1490.53 181.119L1158.39 222.025C1153.3 222.653 1148.56 224.965 1144.94 228.593L879.028 494.567C874.59 499.005 872.159 505.063 872.297 511.338L878.393 788.238Z" stroke="url(#paint21_linear_3_108)" stroke-width="4"/>
<path opacity="0.333333" d="M847.926 766.142C847.656 775.696 853.323 784.422 862.16 788.062L1116.13 892.665C1121.94 895.059 1128.48 894.97 1134.23 892.417L1474.01 741.478C1478.72 739.387 1482.59 735.774 1485 731.222L1640 438.59C1643.91 431.212 1643.51 422.296 1638.96 415.294L1504.42 208.115C1499.87 201.113 1491.89 197.124 1483.56 197.693L1153.18 220.265C1148.04 220.617 1143.17 222.682 1139.35 226.133L863.253 475.148C858.584 479.359 855.842 485.297 855.665 491.582L847.926 766.142Z" stroke="url(#paint22_linear_3_108)" stroke-width="4"/>
<path opacity="0.347826" d="M818.778 743.848C818.033 753.339 823.212 762.309 831.804 766.41L1077.62 883.718C1083.3 886.431 1089.85 886.695 1095.74 884.447L1439.04 753.286C1443.87 751.439 1447.94 748.017 1450.59 743.573L1618.33 462.116C1622.59 454.958 1622.65 446.053 1618.49 438.837L1495.81 226.346C1491.64 219.13 1483.9 214.73 1475.57 214.845L1147.95 219.384C1142.77 219.456 1137.78 221.268 1133.76 224.53L848.522 456.256C843.633 460.227 840.587 466.031 840.094 472.311L818.778 743.848Z" stroke="url(#paint23_linear_3_108)" stroke-width="4"/>
<path opacity="0.362319" d="M790.947 721.43C789.732 730.835 794.413 740.023 802.736 744.568L1039.77 874.016C1045.31 877.041 1051.85 877.657 1057.85 875.721L1403.54 764.289C1408.48 762.694 1412.74 759.473 1415.62 755.15L1595.37 485.392C1599.98 478.472 1600.5 469.602 1596.72 462.193L1486.09 245.057C1482.31 237.648 1474.83 232.852 1466.52 232.515L1142.63 219.373C1137.44 219.162 1132.33 220.716 1128.14 223.779L834.796 437.946C829.699 441.667 826.355 447.319 825.546 453.577L790.947 721.43Z" stroke="url(#paint24_linear_3_108)" stroke-width="4"/>
<path opacity="0.376812" d="M764.424 698.966C762.747 708.261 766.921 717.636 774.951 722.609L1002.61 863.601C1007.99 866.93 1014.5 867.899 1020.61 866.282L1367.57 774.464C1372.61 773.129 1377.05 770.118 1380.16 765.926L1571.16 508.347C1576.1 501.682 1577.07 492.87 1573.69 485.289L1475.25 264.183C1471.87 256.602 1464.68 251.427 1456.42 250.639L1137.2 220.221C1132 219.726 1126.79 221.012 1122.43 223.868L822.033 420.269C816.741 423.729 813.106 429.215 811.983 435.437L764.424 698.966Z" stroke="url(#paint25_linear_3_108)" stroke-width="4"/>
<path opacity="0.391304" d="M739.199 676.528C737.068 685.689 740.728 695.225 748.442 700.607L966.183 852.518C971.379 856.143 977.84 857.465 984.042 856.172L1331.17 783.791C1336.31 782.721 1340.92 779.931 1344.25 775.883L1545.71 530.916C1550.98 524.52 1552.39 515.79 1549.42 508.059L1463.29 283.657C1460.32 275.926 1453.42 270.387 1445.23 269.153L1131.6 221.916C1126.42 221.135 1121.12 222.148 1116.59 224.786L810.191 403.273C804.717 406.462 800.799 411.768 799.364 417.938L799.364 417.939L739.199 676.528Z" stroke="url(#paint26_linear_3_108)" stroke-width="4"/>
<path opacity="0.405797" d="M715.254 654.188C712.678 663.194 715.82 672.863 723.197 678.634L930.506 840.813C935.505 844.724 941.898 846.396 948.172 845.433L1294.41 792.253C1299.61 791.454 1304.38 788.894 1307.93 785.001L1519.08 553.029C1524.64 546.918 1526.5 538.293 1523.95 530.435L1450.19 303.414C1447.63 295.555 1441.06 289.67 1432.97 287.995L1125.79 224.439C1120.63 223.373 1115.27 224.107 1110.59 226.519L799.221 387.008C793.579 389.917 789.389 395.027 787.644 401.129L715.254 654.188Z" stroke="url(#paint27_linear_3_108)" stroke-width="4"/>
<path opacity="0.42029" d="M692.571 632.019C689.562 640.847 692.18 650.618 699.2 656.758L895.604 828.535C900.391 832.722 906.698 834.74 913.027 834.11L1257.32 799.836C1262.58 799.312 1267.5 796.991 1271.25 793.263L1491.29 574.624C1497.14 568.813 1499.44 560.316 1497.3 552.352L1435.95 323.387C1433.82 315.423 1427.58 309.211 1419.61 307.102L1119.73 227.775C1114.62 226.423 1109.2 226.874 1104.38 229.051L789.075 371.515C783.279 374.133 778.826 379.035 776.774 385.054L692.571 632.019Z" stroke="url(#paint28_linear_3_108)" stroke-width="4"/>
<path opacity="0.434783" d="M671.126 610.088C667.695 618.717 669.788 628.563 676.432 635.05L861.502 815.729C866.062 820.18 872.265 822.54 878.631 822.247L1219.96 806.528C1225.26 806.284 1230.32 804.209 1234.27 800.657L1462.39 595.642C1468.51 590.143 1471.23 581.796 1469.52 573.749L1420.58 343.512C1418.87 335.465 1412.99 328.944 1405.17 326.409L1113.38 231.903C1108.33 230.266 1102.86 230.429 1097.91 232.364L779.704 356.833C773.769 359.155 769.062 363.834 766.707 369.755L671.126 610.088Z" stroke="url(#paint29_linear_3_108)" stroke-width="4"/>
<path opacity="0.449275" d="M650.89 588.464C647.05 596.873 648.616 606.765 654.868 613.576L828.218 802.444C832.536 807.148 838.615 809.847 845 809.893L1182.37 812.32C1187.71 812.359 1192.9 810.54 1197.04 807.175L1432.42 616.025C1438.8 610.851 1441.93 602.674 1440.64 594.568L1404.08 363.723C1402.8 355.617 1397.29 348.808 1389.63 345.856L1106.7 236.799C1101.72 234.879 1096.23 234.752 1091.16 236.438L771.052 343.001C764.993 345.018 760.046 349.463 757.393 355.271L650.89 588.464Z" stroke="url(#paint30_linear_3_108)" stroke-width="4"/>
<path opacity="0.463768" d="M631.834 567.21C627.598 575.38 628.64 585.289 634.481 592.4L795.767 788.73C799.829 793.675 805.767 796.704 812.154 797.091L1144.62 817.208C1149.97 817.532 1155.27 815.975 1159.6 812.806L1401.43 635.716C1408.04 630.879 1411.58 622.895 1410.72 614.752L1386.46 383.957C1385.61 375.814 1380.49 368.74 1373.02 365.382L1099.65 242.442C1094.76 240.242 1089.25 239.82 1084.08 241.251L763.066 330.052C756.899 331.758 751.721 335.956 748.776 341.637L631.834 567.21Z" stroke="url(#paint31_linear_3_108)" stroke-width="4"/>
<path opacity="0.478261" d="M613.922 546.389C609.306 554.302 609.824 564.199 615.242 571.586L764.166 774.638C767.958 779.808 773.735 783.161 780.105 783.888L1106.75 821.189C1112.1 821.8 1117.5 820.512 1122.01 817.549L1369.47 654.667C1376.29 650.176 1380.22 642.404 1379.79 634.247L1367.74 404.154C1367.31 395.997 1362.59 388.678 1355.33 384.925L1092.2 248.802C1087.41 246.326 1081.91 245.609 1076.65 246.777L755.69 318.017C749.431 319.406 744.036 323.345 740.805 328.883L613.922 546.389Z" stroke="url(#paint32_linear_3_108)" stroke-width="4"/>
<path opacity="0.492754" d="M597.115 526.062C592.134 533.699 592.134 543.557 597.115 551.194L733.421 760.215C736.931 765.597 742.532 769.265 748.867 770.333L1068.81 824.261C1074.15 825.162 1079.64 824.148 1084.31 821.399L1336.59 672.828C1343.61 668.693 1347.92 661.154 1347.92 653.006L1347.92 424.249C1347.92 416.102 1343.61 408.562 1336.59 404.427L1084.31 255.856C1079.64 253.107 1074.15 252.094 1068.81 252.994L748.867 306.922C742.532 307.99 736.931 311.659 733.421 317.04L597.115 526.062Z" stroke="url(#paint33_linear_3_108)" stroke-width="4"/>
<path opacity="0.507246" d="M581.374 506.284C576.046 513.629 575.533 523.419 580.064 531.28L703.542 745.512C706.757 751.09 712.163 755.065 718.446 756.472L1030.86 826.429C1036.17 827.618 1041.73 826.886 1046.56 824.36L1302.84 690.155C1310.04 686.385 1314.71 679.095 1315.14 670.979L1327.03 444.187C1327.45 436.071 1323.56 428.333 1316.8 423.831L1075.95 263.571C1071.41 260.555 1065.96 259.246 1060.55 259.873L742.537 296.791C736.142 297.533 730.35 300.921 726.569 306.133L581.374 506.284Z" stroke="url(#paint34_linear_3_108)" stroke-width="4"/>
<path opacity="0.521739" d="M566.655 487.111C560.997 494.147 559.978 503.843 564.05 511.901L674.534 730.579C677.444 736.338 682.638 740.61 688.85 742.354L992.936 827.698C998.205 829.177 1003.83 828.73 1008.8 826.435L1268.28 706.606C1275.64 703.208 1280.67 696.187 1281.52 688.126L1305.08 463.908C1305.93 455.846 1302.47 447.934 1295.98 443.079L1067.08 271.918C1062.7 268.641 1057.29 267.035 1051.83 267.386L736.642 287.642C730.203 288.056 724.234 291.155 720.191 296.183L566.655 487.111Z" stroke="url(#paint35_linear_3_108)" stroke-width="4"/>
<path opacity="0.536232" d="M552.912 468.593C546.942 475.306 545.425 484.88 549.029 493.109L646.397 715.464C648.991 721.387 653.958 725.945 660.082 728.022L955.099 828.078C960.309 829.845 965.98 829.686 971.082 827.631L1232.98 722.145C1240.48 719.125 1245.84 712.39 1247.11 704.405L1282.12 483.356C1283.38 475.371 1280.36 467.309 1274.16 462.119L1057.68 280.866C1053.46 277.334 1048.12 275.431 1042.62 275.501L731.121 279.495C724.656 279.578 718.523 282.378 714.226 287.209L552.912 468.593Z" stroke="url(#paint36_linear_3_108)" stroke-width="4"/>
<path opacity="0.550725" d="M540.094 450.778C533.831 457.154 531.828 466.58 534.956 474.952L619.133 700.217C621.401 706.287 626.125 711.119 632.142 713.525L917.394 827.578C922.529 829.631 928.233 829.765 933.459 827.956L1196.99 736.739C1204.61 734.101 1210.29 727.668 1211.96 719.782L1258.15 502.479C1259.83 494.593 1257.26 486.404 1251.37 480.896L1047.73 290.379C1043.69 286.6 1038.42 284.403 1032.89 284.19L725.914 272.359C719.439 272.11 713.159 274.603 708.618 279.226L540.094 450.778Z" stroke="url(#paint37_linear_3_108)" stroke-width="4"/>
<path opacity="0.565217" d="M528.151 433.71C521.615 439.736 519.136 448.989 521.783 457.476L592.736 684.887C594.671 691.087 599.135 696.18 605.028 698.91L879.869 826.213C884.915 828.55 890.637 828.98 895.976 827.424L1160.37 750.355C1168.09 748.105 1174.07 741.989 1176.15 734.223L1233.22 521.224C1235.31 513.459 1233.18 505.17 1227.62 499.363L1037.19 300.422C1033.34 296.405 1028.17 293.917 1022.63 293.418L720.96 266.245C714.492 265.662 708.079 267.841 703.304 272.243L528.151 433.71Z" stroke="url(#paint38_linear_3_108)" stroke-width="4"/>
<path opacity="0.57971" d="M517.03 417.431C510.241 423.096 507.298 432.151 509.462 440.725L567.201 669.521C568.793 675.831 572.985 681.172 578.736 684.22L842.571 824C847.512 826.618 853.238 827.346 858.677 826.049L1123.19 762.97C1130.98 761.11 1137.25 755.326 1139.73 747.702L1207.36 539.544C1209.84 531.92 1208.17 523.556 1202.95 517.468L1026.04 310.961C1022.4 306.715 1017.34 303.939 1011.8 303.152L716.197 261.158C709.753 260.243 703.223 262.1 698.225 266.27L517.03 417.431Z" stroke="url(#paint39_linear_3_108)" stroke-width="4"/>
<path opacity="0.594203" d="M506.675 401.978C499.653 407.271 496.262 416.105 497.939 424.737L542.518 654.165C543.763 660.568 547.667 666.142 553.26 669.5L805.546 820.957C810.368 823.852 816.082 824.88 821.61 823.848L1085.51 774.562C1093.36 773.094 1099.89 767.653 1102.76 760.192L1180.61 557.391C1183.47 549.929 1182.26 541.515 1177.4 535.167L1014.27 321.96C1010.85 317.493 1005.91 314.434 1000.39 313.359L711.565 257.101C705.162 255.854 698.531 257.384 693.321 261.31L506.675 401.978Z" stroke="url(#paint40_linear_3_108)" stroke-width="4"/>
<path opacity="0.608696" d="M497.031 387.385C489.796 392.297 485.972 400.887 487.162 409.55L518.678 638.865C519.568 645.342 523.172 651.134 528.59 654.795L768.837 817.107C773.523 820.273 779.212 821.601 784.817 820.839L1047.39 785.11C1055.29 784.036 1062.06 778.953 1065.3 771.673L1152.99 574.721C1156.23 567.442 1155.48 559.003 1150.99 552.417L1001.85 333.38C998.664 328.705 993.87 325.366 988.381 324.002L707.003 254.071C700.658 252.494 693.942 253.691 688.533 257.364L497.031 387.385Z" stroke="url(#paint41_linear_3_108)" stroke-width="4"/>
<path opacity="0.623188" d="M488.036 373.682C480.611 378.206 476.37 386.528 477.075 395.194L495.665 623.666C496.196 630.197 499.488 636.193 504.714 640.147L732.488 812.471C737.025 815.904 742.672 817.533 748.341 817.045L1008.91 794.604C1016.82 793.923 1023.82 789.206 1027.43 782.128L1124.56 591.493C1128.17 584.415 1127.87 575.978 1123.77 569.175L988.766 345.183C985.83 340.31 981.192 336.699 975.748 335.046L702.452 252.063C696.182 250.16 689.397 251.021 683.8 254.43L488.036 373.682Z" stroke="url(#paint42_linear_3_108)" stroke-width="4"/>
<path opacity="0.637681" d="M479.633 360.896C472.039 365.023 467.4 373.059 467.622 381.7L473.465 608.611C473.634 615.177 476.601 621.357 481.619 625.595L696.538 807.078C700.911 810.77 706.503 812.7 712.223 812.491L970.117 803.031C978.03 802.741 985.237 798.401 989.196 791.544L1095.36 607.67C1099.31 600.813 1099.47 592.402 1095.76 585.404L975.01 357.331C972.331 352.273 967.864 348.395 962.479 346.454L697.851 251.07C691.672 248.843 684.836 249.364 679.066 252.5L479.633 360.896Z" stroke="url(#paint43_linear_3_108)" stroke-width="4"/>
<path opacity="0.652174" d="M471.761 349.049C464.02 352.775 459.001 360.504 458.745 369.092L452.058 593.743C451.862 600.323 454.494 606.672 459.289 611.183L661.029 800.955C665.223 804.9 670.745 807.129 676.503 807.201L931.09 810.386C938.981 810.485 946.373 806.532 950.671 799.913L1065.42 623.215C1069.72 616.596 1070.32 608.236 1067.02 601.067L960.564 369.785C958.157 364.554 953.874 360.416 948.564 358.19L693.144 251.079C687.073 248.533 680.202 248.71 674.27 251.565L471.761 349.049Z" stroke="url(#paint44_linear_3_108)" stroke-width="4"/>
<path opacity="0.666667" d="M464.359 338.16C456.493 341.481 451.114 348.885 450.387 357.392L431.424 579.101C430.862 585.675 433.15 592.175 437.707 596.947L625.995 794.131C629.997 798.322 635.434 800.849 641.217 801.205L891.891 816.667C899.742 817.152 907.295 813.591 911.918 807.228L1034.8 638.095C1039.42 631.732 1040.47 623.448 1037.59 616.131L945.421 382.505C943.294 377.114 939.212 372.725 933.989 370.214L688.272 252.074C682.325 249.215 675.436 249.047 669.357 251.614L464.359 338.16Z" stroke="url(#paint45_linear_3_108)" stroke-width="4"/>
<path opacity="0.681159" d="M457.366 328.243C449.397 331.155 443.677 338.218 442.486 346.619L411.541 564.723C410.612 571.272 412.548 577.904 416.853 582.926L591.476 786.639C595.271 791.067 600.606 793.888 606.402 794.532L852.584 821.874C860.374 822.739 868.068 819.579 873.001 813.488L1003.54 652.283C1008.47 646.192 1009.97 638.009 1007.5 630.569L929.571 395.45C927.737 389.915 923.868 385.283 918.748 382.492L683.18 254.039C677.372 250.872 670.483 250.358 664.27 252.628L457.366 328.243Z" stroke="url(#paint46_linear_3_108)" stroke-width="4"/>
<path opacity="0.695652" d="M450.719 319.312C442.669 321.814 436.633 328.518 434.986 336.785L392.385 550.648C391.09 557.15 392.664 563.896 396.702 569.154L557.502 778.514C561.077 783.169 566.297 786.281 572.092 787.214L813.233 826.015C820.944 827.255 828.758 824.499 833.983 818.695L971.695 665.751C976.921 659.947 978.846 651.888 976.806 644.349L913.011 408.585C911.478 402.919 907.837 398.053 902.834 394.984L677.813 256.949C672.161 253.482 665.288 252.622 658.956 254.59L450.719 319.312Z" stroke="url(#paint47_linear_3_108)" stroke-width="4"/>
<path opacity="0.710145" d="M444.357 311.373C436.248 313.464 429.916 319.796 427.825 327.905L373.93 536.91C372.27 543.346 373.476 550.185 377.235 555.665L524.105 769.79C527.448 774.662 532.537 778.062 538.317 779.284L773.903 829.097C781.516 830.707 789.426 828.359 794.928 822.856L939.309 678.476C944.811 672.973 947.159 665.063 945.55 657.45L895.737 421.865C894.515 416.084 891.115 410.995 886.242 407.653L672.118 260.783C666.637 257.024 659.798 255.818 653.362 257.477L444.357 311.373Z" stroke="url(#paint48_linear_3_108)" stroke-width="4"/>
<path opacity="0.724638" d="M438.218 304.43C430.072 306.11 423.467 312.056 420.944 319.981L356.148 523.542C354.127 529.891 354.957 536.805 358.425 542.494L491.317 760.504C494.413 765.583 499.356 769.266 505.109 770.778L734.654 831.133C742.151 833.104 750.136 831.167 755.896 825.981L906.432 690.437C912.193 685.251 914.954 677.512 913.777 669.85L877.747 435.254C876.844 429.374 873.698 424.073 868.97 420.463L666.046 265.511C660.75 261.468 653.961 259.919 647.436 261.265L438.218 304.43Z" stroke="url(#paint49_linear_3_108)" stroke-width="4"/>
<path opacity="0.73913" d="M432.239 298.482C424.078 299.754 417.226 305.303 414.285 313.02L339.008 510.577C336.63 516.819 337.082 523.786 340.246 529.668L459.16 750.694C461.998 755.969 466.782 759.93 472.494 761.733L695.548 832.142C702.911 834.466 710.949 832.941 716.949 828.082L873.117 701.619C879.118 696.76 882.281 689.215 881.538 681.529L859.043 448.711C858.467 442.749 855.588 437.246 851.018 433.374L659.545 271.104C654.45 266.786 647.729 264.895 641.13 265.924L432.239 298.482Z" stroke="url(#paint50_linear_3_108)" stroke-width="4"/>
<path opacity="0.753623" d="M426.361 293.526C418.207 294.392 411.13 299.534 407.787 307.021L322.481 498.045C319.751 504.159 319.82 511.159 322.67 517.217L427.663 740.401C430.231 745.86 434.84 750.091 440.498 752.184L656.644 832.141C663.856 834.809 671.925 833.696 678.147 829.176L839.414 712.008C845.635 707.488 849.187 700.158 848.879 692.474L839.628 462.199C839.386 456.171 836.786 450.48 832.388 446.351L652.572 277.53C647.691 272.947 641.054 270.718 634.396 271.425L426.361 293.526Z" stroke="url(#paint51_linear_3_108)" stroke-width="4"/>
<path opacity="0.768116" d="M420.525 289.556C412.398 290.021 405.123 294.746 401.392 301.981L306.535 485.969C303.459 491.936 303.143 498.948 305.669 505.167L396.845 729.665C399.131 735.295 403.552 739.791 409.142 742.172L618 831.154C625.046 834.156 633.123 833.455 639.546 829.284L805.374 721.594C811.797 717.423 815.723 710.329 815.846 702.672L819.508 475.678C819.605 469.603 817.296 463.735 813.084 459.357L645.079 284.752C640.425 279.915 633.89 277.352 627.188 277.735L420.525 289.556Z" stroke="url(#paint52_linear_3_108)" stroke-width="4"/>
<path opacity="0.782609" d="M414.671 286.56C406.592 286.628 399.142 290.93 395.043 297.892L291.136 474.378C287.722 480.178 287.018 487.181 289.21 493.544L366.728 718.528C368.722 724.316 372.94 729.069 378.449 731.738L579.671 829.209C586.534 832.533 594.599 832.241 601.203 828.428L771.049 730.368C777.653 726.555 781.938 719.717 782.49 712.111L798.689 489.112C799.132 483.007 797.125 476.977 793.11 472.356L637.026 292.732C632.612 287.652 626.195 284.76 619.466 284.817L414.671 286.56Z" stroke="url(#paint53_linear_3_108)" stroke-width="4"/>
<path opacity="0.797101" d="M408.741 284.523C400.731 284.202 393.131 288.074 388.683 294.743L276.25 463.294C272.507 468.906 271.415 475.879 273.265 482.368L337.328 707.033C339.019 712.964 343.021 717.967 348.436 720.921L541.713 826.334C548.378 829.969 556.408 830.082 563.172 826.636L736.488 738.326C743.253 734.88 747.881 728.317 748.858 720.789L777.182 502.463C777.975 496.347 776.28 490.168 772.476 485.314L628.373 301.431C624.211 296.121 617.928 292.905 611.187 292.635L408.741 284.523Z" stroke="url(#paint54_linear_3_108)" stroke-width="4"/>
<path opacity="0.811594" d="M402.68 283.429C394.758 282.726 387.035 286.165 382.256 292.522L261.843 452.736C257.779 458.143 256.3 465.065 257.801 471.661L308.66 695.222C310.039 701.283 313.811 706.527 319.118 709.762L504.175 822.563C510.628 826.496 518.602 827.009 525.505 823.936L701.744 745.469C708.648 742.395 713.602 736.127 714.997 728.699L754.997 515.697C756.144 509.588 754.771 503.275 751.19 498.195L619.082 310.808C615.185 305.28 609.052 301.747 602.314 301.148L402.68 283.429Z" stroke="url(#paint55_linear_3_108)" stroke-width="4"/>
<path opacity="0.826087" d="M396.433 283.256C388.618 282.18 380.796 285.182 375.709 291.211L247.877 442.724C243.503 447.907 241.64 454.756 242.785 461.441L280.736 683.141C281.793 689.315 285.323 694.792 290.51 698.305L467.107 817.93C473.334 822.148 481.231 823.056 488.253 820.361L666.867 751.797C673.889 749.102 679.149 743.143 680.954 735.841L732.148 528.776C733.651 522.695 732.609 516.263 729.263 510.967L609.121 320.818C605.498 315.084 599.531 311.241 592.813 310.316L396.433 283.256Z" stroke="url(#paint56_linear_3_108)" stroke-width="4"/>
<path opacity="0.84058" d="M389.947 283.983C382.258 282.542 374.365 285.107 368.991 290.792L234.317 433.274C229.646 438.215 227.401 444.97 228.183 451.724L253.567 670.831C254.293 677.105 257.568 682.804 262.621 686.592L430.555 812.474C436.544 816.963 444.344 818.259 451.462 815.946L631.904 757.317C639.023 755.004 644.571 749.371 646.778 742.219L708.648 541.669C710.509 535.634 709.808 529.099 706.709 523.597L598.456 331.415C595.12 325.491 589.333 321.346 582.65 320.094L389.947 283.983Z" stroke="url(#paint57_linear_3_108)" stroke-width="4"/>
<path opacity="0.855072" d="M383.172 285.579C375.628 283.785 367.686 285.913 362.05 291.239L221.126 424.399C216.171 429.081 213.547 435.719 213.963 442.523L227.157 658.34C227.546 664.695 230.552 670.606 235.459 674.664L394.564 806.236C400.303 810.982 407.984 812.656 415.178 810.729L596.907 762.035C604.1 760.107 609.915 754.816 612.512 747.837L684.515 554.34C686.736 548.372 686.384 541.75 683.543 536.052L587.061 342.552C584.019 336.452 578.428 332.014 571.796 330.437L383.172 285.579Z" stroke="url(#paint58_linear_3_108)" stroke-width="4"/>
<path opacity="0.869565" d="M376.059 288.019C368.676 285.883 360.714 287.575 354.838 292.53L208.266 416.111C203.041 420.517 200.045 427.018 200.091 433.853L201.514 645.71C201.557 652.131 204.282 658.243 209.031 662.566L359.172 799.258C364.65 804.245 372.196 806.289 379.442 804.749L561.921 765.962C569.167 764.422 575.228 759.485 578.204 752.701L659.768 566.759C662.348 560.879 662.352 554.186 659.779 548.302L574.909 354.183C572.171 347.92 566.79 343.2 560.224 341.3L376.059 288.019Z" stroke="url(#paint59_linear_3_108)" stroke-width="4"/>
<path opacity="0.884058" d="M368.564 291.267C361.358 288.801 353.398 290.062 347.307 294.634L195.701 408.418C190.22 412.532 186.858 418.875 186.531 425.72L176.638 632.986C176.33 639.456 178.762 645.758 183.34 650.341L324.42 791.585C329.627 796.798 337.017 799.202 344.295 798.049L526.992 769.113C534.27 767.96 540.555 763.39 543.897 756.823L634.425 578.896C637.362 573.122 637.729 566.378 635.436 560.32L561.978 366.255C559.552 359.846 554.394 354.852 547.91 352.634L368.564 291.267Z" stroke="url(#paint60_linear_3_108)" stroke-width="4"/>
<path opacity="0.898551" d="M360.64 295.29C353.627 292.508 345.696 293.342 339.415 297.521L183.393 401.329C177.672 405.135 173.952 411.299 173.251 418.135L152.529 620.214C151.862 626.716 153.992 633.194 158.387 638.031L290.342 783.264C295.27 788.687 302.485 791.439 309.773 790.673L492.166 771.503C499.453 770.737 505.939 766.545 509.632 760.216L608.508 590.721C611.801 585.076 612.537 578.297 610.533 572.076L548.249 378.721C546.143 372.181 541.222 366.925 534.835 364.391L360.64 295.29Z" stroke="url(#paint61_linear_3_108)" stroke-width="4"/>
<path opacity="0.913043" d="M352.249 300.05C345.443 296.966 337.563 297.379 331.117 301.158L171.303 394.847C165.36 398.331 161.291 404.296 160.216 411.101L129.183 607.437C128.153 613.951 129.969 620.594 134.169 625.679L256.968 774.344C261.608 779.96 268.634 783.048 275.909 782.666L457.486 773.15C464.761 772.769 471.426 768.964 475.453 762.893L582.04 602.207C585.685 596.711 586.796 589.915 585.092 583.544L533.706 391.527C531.925 384.872 527.255 379.365 520.98 376.521L352.249 300.05Z" stroke="url(#paint62_linear_3_108)" stroke-width="4"/>
<path opacity="0.927536" d="M343.35 305.51C336.766 302.138 328.961 302.138 322.377 305.51L159.398 388.975C153.249 392.124 148.84 397.869 147.391 404.623L106.595 594.698C105.198 601.207 106.69 608.002 110.683 613.327L224.329 764.874C228.674 770.667 235.493 774.077 242.734 774.077L422.993 774.077C430.234 774.077 437.053 770.667 441.398 764.874L555.044 613.327C559.037 608.002 560.529 601.207 559.132 594.698L518.336 404.623C516.887 397.869 512.478 392.124 506.329 388.975L343.35 305.51Z" stroke="url(#paint63_linear_3_108)" stroke-width="4"/>
<path opacity="0.942029" d="M333.908 311.626C327.558 307.983 319.853 307.579 313.157 310.539L147.636 383.713C141.301 386.513 136.566 392.02 134.744 398.702L84.7571 582.041C82.9892 588.525 84.146 595.459 87.9223 601.018L192.449 754.907C196.492 760.859 203.088 764.577 210.274 764.954L388.728 774.306C395.914 774.683 402.862 771.675 407.506 766.177L527.546 624.058C531.882 618.924 533.758 612.149 532.677 605.515L502.128 417.956C501.015 411.12 496.881 405.149 490.873 401.701L333.908 311.626Z" stroke="url(#paint64_linear_3_108)" stroke-width="4"/>
<path opacity="0.956522" d="M323.892 318.358C317.788 314.458 310.204 313.661 303.422 316.206L135.985 379.059C129.483 381.5 124.431 386.747 122.24 393.337L63.6595 569.508C61.518 575.948 62.3298 583.005 65.8775 588.791L161.349 744.494C165.087 750.589 171.446 754.6 178.556 755.347L354.727 773.863C361.837 774.611 368.891 772.01 373.814 766.825L499.572 634.374C504.245 629.452 506.506 622.718 505.751 615.973L485.078 431.473C484.305 424.571 480.455 418.388 474.602 414.649L323.892 318.358Z" stroke="url(#paint65_linear_3_108)" stroke-width="4"/>
<path opacity="0.971014" d="M313.271 325.66C307.423 321.521 299.981 320.341 293.141 322.471L124.407 375.009C117.759 377.079 112.405 382.049 109.848 388.526L43.289 557.14C40.7719 563.517 41.2297 570.684 44.5382 576.688L131.049 733.688C134.477 739.908 140.584 744.197 147.598 745.308L321.027 772.776C328.041 773.887 335.174 771.695 340.356 766.839L471.149 644.257C476.151 639.568 478.801 632.894 478.377 626.051L467.18 445.122C466.75 438.172 463.195 431.79 457.511 427.767L313.271 325.66Z" stroke="url(#paint66_linear_3_108)" stroke-width="4"/>
<path opacity="0.985507" d="M302.019 333.485C296.438 329.124 289.158 327.577 282.286 329.291L112.868 371.556C106.093 373.246 100.453 377.922 97.5354 384.265L23.6299 544.978C20.7359 551.271 20.8321 558.533 23.8912 564.748L101.563 722.545C104.677 728.872 110.522 733.422 117.42 734.888L287.66 771.073C294.558 772.54 301.748 770.761 307.166 766.247L442.305 653.684C447.627 649.251 450.669 642.656 450.585 635.73L448.436 458.852C448.352 451.87 445.1 445.304 439.599 441.005L302.019 333.485Z" stroke="url(#paint67_linear_3_108)" stroke-width="4"/>
<path d="M290.112 341.789C284.806 337.223 277.708 335.321 270.83 336.622L101.333 368.693C94.4547 369.994 88.5425 374.357 85.2713 380.547L4.66614 533.06C1.39492 539.25 1.12051 546.592 3.91996 553.008L72.9021 711.119C75.7017 717.536 81.2713 722.328 88.0335 724.14L254.659 768.787C261.421 770.599 268.641 769.234 274.274 765.077L413.07 662.64C418.702 658.482 422.136 651.987 422.398 644.991L428.848 472.608C429.11 465.612 426.171 458.877 420.865 454.311L290.112 341.789Z" stroke="url(#paint68_linear_3_108)" stroke-width="4"/>
<defs>
<linearGradient id="paint0_linear_3_108" x1="1797.52" y1="1086.37" x2="1613.59" y2="-74.8711" gradientUnits="userSpaceOnUse">
<stop stop-color="#FF1CF7"/>
<stop offset="1" stop-color="#00F0FF"/>
</linearGradient>
<linearGradient id="paint1_linear_3_108" x1="1745.74" y1="1085.62" x2="1623.93" y2="-73.3265" gradientUnits="userSpaceOnUse">
<stop stop-color="#FF1CF7"/>
<stop offset="1" stop-color="#00F0FF"/>
</linearGradient>
<linearGradient id="paint2_linear_3_108" x1="1694.33" y1="1083.3" x2="1633.88" y2="-70.0773" gradientUnits="userSpaceOnUse">
<stop stop-color="#FF1CF7"/>
<stop offset="1" stop-color="#00F0FF"/>
</linearGradient>
<linearGradient id="paint3_linear_3_108" x1="1643.36" y1="1079.42" x2="1643.36" y2="-65.1608" gradientUnits="userSpaceOnUse">
<stop stop-color="#FF1CF7"/>
<stop offset="1" stop-color="#00F0FF"/>
</linearGradient>
<linearGradient id="paint4_linear_3_108" x1="1592.91" y1="1074.03" x2="1652.27" y2="-58.6191" gradientUnits="userSpaceOnUse">
<stop stop-color="#FF1CF7"/>
<stop offset="1" stop-color="#00F0FF"/>
</linearGradient>
<linearGradient id="paint5_linear_3_108" x1="1543.06" y1="1067.17" x2="1660.53" y2="-50.4985" gradientUnits="userSpaceOnUse">
<stop stop-color="#FF1CF7"/>
<stop offset="1" stop-color="#00F0FF"/>
</linearGradient>
<linearGradient id="paint6_linear_3_108" x1="1493.89" y1="1058.89" x2="1668.07" y2="-40.8494" gradientUnits="userSpaceOnUse">
<stop stop-color="#FF1CF7"/>
<stop offset="1" stop-color="#00F0FF"/>
</linearGradient>
<linearGradient id="paint7_linear_3_108" x1="1445.46" y1="1049.24" x2="1674.8" y2="-29.727" gradientUnits="userSpaceOnUse">
<stop stop-color="#FF1CF7"/>
<stop offset="1" stop-color="#00F0FF"/>
</linearGradient>
<linearGradient id="paint8_linear_3_108" x1="1397.85" y1="1038.27" x2="1680.66" y2="-17.1894" gradientUnits="userSpaceOnUse">
<stop stop-color="#FF1CF7"/>
<stop offset="1" stop-color="#00F0FF"/>
</linearGradient>
<linearGradient id="paint9_linear_3_108" x1="1351.12" y1="1026.05" x2="1685.58" y2="-3.29851" gradientUnits="userSpaceOnUse">
<stop stop-color="#FF1CF7"/>
<stop offset="1" stop-color="#00F0FF"/>
</linearGradient>
<linearGradient id="paint10_linear_3_108" x1="1305.33" y1="1012.62" x2="1689.48" y2="11.8802" gradientUnits="userSpaceOnUse">
<stop stop-color="#FF1CF7"/>
<stop offset="1" stop-color="#00F0FF"/>
</linearGradient>
<linearGradient id="paint11_linear_3_108" x1="1260.54" y1="998.066" x2="1692.31" y2="28.2779" gradientUnits="userSpaceOnUse">
<stop stop-color="#FF1CF7"/>
<stop offset="1" stop-color="#00F0FF"/>
</linearGradient>
<linearGradient id="paint12_linear_3_108" x1="1216.79" y1="982.44" x2="1694.02" y2="45.8241" gradientUnits="userSpaceOnUse">
<stop stop-color="#FF1CF7"/>
<stop offset="1" stop-color="#00F0FF"/>
</linearGradient>
<linearGradient id="paint13_linear_3_108" x1="1174.14" y1="965.814" x2="1694.55" y2="64.4448" gradientUnits="userSpaceOnUse">
<stop stop-color="#FF1CF7"/>
<stop offset="1" stop-color="#00F0FF"/>
</linearGradient>
<linearGradient id="paint14_linear_3_108" x1="1132.63" y1="948.259" x2="1693.85" y2="84.0642" gradientUnits="userSpaceOnUse">
<stop stop-color="#FF1CF7"/>
<stop offset="1" stop-color="#00F0FF"/>
</linearGradient>
<linearGradient id="paint15_linear_3_108" x1="1092.3" y1="929.848" x2="1691.88" y2="104.604" gradientUnits="userSpaceOnUse">
<stop stop-color="#FF1CF7"/>
<stop offset="1" stop-color="#00F0FF"/>
</linearGradient>
<linearGradient id="paint16_linear_3_108" x1="1053.19" y1="910.654" x2="1688.6" y2="125.985" gradientUnits="userSpaceOnUse">
<stop stop-color="#FF1CF7"/>
<stop offset="1" stop-color="#00F0FF"/>
</linearGradient>
<linearGradient id="paint17_linear_3_108" x1="1015.33" y1="890.754" x2="1683.99" y2="148.126" gradientUnits="userSpaceOnUse">
<stop stop-color="#FF1CF7"/>
<stop offset="1" stop-color="#00F0FF"/>
</linearGradient>
<linearGradient id="paint18_linear_3_108" x1="978.731" y1="870.222" x2="1678.01" y2="170.945" gradientUnits="userSpaceOnUse">
<stop stop-color="#FF1CF7"/>
<stop offset="1" stop-color="#00F0FF"/>
</linearGradient>
<linearGradient id="paint19_linear_3_108" x1="943.431" y1="849.137" x2="1670.63" y2="194.36" gradientUnits="userSpaceOnUse">
<stop stop-color="#FF1CF7"/>
<stop offset="1" stop-color="#00F0FF"/>
</linearGradient>
<linearGradient id="paint20_linear_3_108" x1="909.441" y1="827.576" x2="1661.85" y2="218.286" gradientUnits="userSpaceOnUse">
<stop stop-color="#FF1CF7"/>
<stop offset="1" stop-color="#00F0FF"/>
</linearGradient>
<linearGradient id="paint21_linear_3_108" x1="876.775" y1="805.617" x2="1651.65" y2="242.639" gradientUnits="userSpaceOnUse">
<stop stop-color="#FF1CF7"/>
<stop offset="1" stop-color="#00F0FF"/>
</linearGradient>
<linearGradient id="paint22_linear_3_108" x1="845.44" y1="783.338" x2="1640.01" y2="267.337" gradientUnits="userSpaceOnUse">
<stop stop-color="#FF1CF7"/>
<stop offset="1" stop-color="#00F0FF"/>
</linearGradient>
<linearGradient id="paint23_linear_3_108" x1="815.439" y1="760.817" x2="1626.94" y2="292.296" gradientUnits="userSpaceOnUse">
<stop stop-color="#FF1CF7"/>
<stop offset="1" stop-color="#00F0FF"/>
</linearGradient>
<linearGradient id="paint24_linear_3_108" x1="786.773" y1="738.129" x2="1612.44" y2="317.432" gradientUnits="userSpaceOnUse">
<stop stop-color="#FF1CF7"/>
<stop offset="1" stop-color="#00F0FF"/>
</linearGradient>
<linearGradient id="paint25_linear_3_108" x1="759.434" y1="715.353" x2="1596.5" y2="342.665" gradientUnits="userSpaceOnUse">
<stop stop-color="#FF1CF7"/>
<stop offset="1" stop-color="#00F0FF"/>
</linearGradient>
<linearGradient id="paint26_linear_3_108" x1="733.414" y1="692.562" x2="1579.15" y2="367.913" gradientUnits="userSpaceOnUse">
<stop stop-color="#FF1CF7"/>
<stop offset="1" stop-color="#00F0FF"/>
</linearGradient>
<linearGradient id="paint27_linear_3_108" x1="708.699" y1="669.831" x2="1560.4" y2="393.096" gradientUnits="userSpaceOnUse">
<stop stop-color="#FF1CF7"/>
<stop offset="1" stop-color="#00F0FF"/>
</linearGradient>
<linearGradient id="paint28_linear_3_108" x1="685.271" y1="647.233" x2="1540.27" y2="418.138" gradientUnits="userSpaceOnUse">
<stop stop-color="#FF1CF7"/>
<stop offset="1" stop-color="#00F0FF"/>
</linearGradient>
<linearGradient id="paint29_linear_3_108" x1="663.107" y1="624.837" x2="1518.77" y2="442.961" gradientUnits="userSpaceOnUse">
<stop stop-color="#FF1CF7"/>
<stop offset="1" stop-color="#00F0FF"/>
</linearGradient>
<linearGradient id="paint30_linear_3_108" x1="642.183" y1="602.714" x2="1495.94" y2="467.491" gradientUnits="userSpaceOnUse">
<stop stop-color="#FF1CF7"/>
<stop offset="1" stop-color="#00F0FF"/>
</linearGradient>
<linearGradient id="paint31_linear_3_108" x1="622.468" y1="580.928" x2="1471.82" y2="491.658" gradientUnits="userSpaceOnUse">
<stop stop-color="#FF1CF7"/>
<stop offset="1" stop-color="#00F0FF"/>
</linearGradient>
<linearGradient id="paint32_linear_3_108" x1="603.93" y1="559.546" x2="1446.42" y2="515.393" gradientUnits="userSpaceOnUse">
<stop stop-color="#FF1CF7"/>
<stop offset="1" stop-color="#00F0FF"/>
</linearGradient>
<linearGradient id="paint33_linear_3_108" x1="586.533" y1="538.628" x2="1419.8" y2="538.628" gradientUnits="userSpaceOnUse">
<stop stop-color="#FF1CF7"/>
<stop offset="1" stop-color="#00F0FF"/>
</linearGradient>
<linearGradient id="paint34_linear_3_108" x1="570.235" y1="518.233" x2="1392" y2="561.3" gradientUnits="userSpaceOnUse">
<stop stop-color="#FF1CF7"/>
<stop offset="1" stop-color="#00F0FF"/>
</linearGradient>
<linearGradient id="paint35_linear_3_108" x1="554.997" y1="498.418" x2="1363.06" y2="583.349" gradientUnits="userSpaceOnUse">
<stop stop-color="#FF1CF7"/>
<stop offset="1" stop-color="#00F0FF"/>
</linearGradient>
<linearGradient id="paint36_linear_3_108" x1="540.77" y1="479.235" x2="1333.04" y2="604.718" gradientUnits="userSpaceOnUse">
<stop stop-color="#FF1CF7"/>
<stop offset="1" stop-color="#00F0FF"/>
</linearGradient>
<linearGradient id="paint37_linear_3_108" x1="527.509" y1="460.736" x2="1301.97" y2="625.353" gradientUnits="userSpaceOnUse">
<stop stop-color="#FF1CF7"/>
<stop offset="1" stop-color="#00F0FF"/>
</linearGradient>
<linearGradient id="paint38_linear_3_108" x1="515.161" y1="442.966" x2="1269.92" y2="645.203" gradientUnits="userSpaceOnUse">
<stop stop-color="#FF1CF7"/>
<stop offset="1" stop-color="#00F0FF"/>
</linearGradient>
<linearGradient id="paint39_linear_3_108" x1="503.675" y1="425.968" x2="1236.95" y2="664.223" gradientUnits="userSpaceOnUse">
<stop stop-color="#FF1CF7"/>
<stop offset="1" stop-color="#00F0FF"/>
</linearGradient>
<linearGradient id="paint40_linear_3_108" x1="492.996" y1="409.784" x2="1203.11" y2="682.37" gradientUnits="userSpaceOnUse">
<stop stop-color="#FF1CF7"/>
<stop offset="1" stop-color="#00F0FF"/>
</linearGradient>
<linearGradient id="paint41_linear_3_108" x1="483.067" y1="394.448" x2="1168.46" y2="699.604" gradientUnits="userSpaceOnUse">
<stop stop-color="#FF1CF7"/>
<stop offset="1" stop-color="#00F0FF"/>
</linearGradient>
<linearGradient id="paint42_linear_3_108" x1="473.831" y1="379.993" x2="1133.07" y2="715.891" gradientUnits="userSpaceOnUse">
<stop stop-color="#FF1CF7"/>
<stop offset="1" stop-color="#00F0FF"/>
</linearGradient>
<linearGradient id="paint43_linear_3_108" x1="465.228" y1="366.448" x2="1096.99" y2="731.199" gradientUnits="userSpaceOnUse">
<stop stop-color="#FF1CF7"/>
<stop offset="1" stop-color="#00F0FF"/>
</linearGradient>
<linearGradient id="paint44_linear_3_108" x1="457.198" y1="353.839" x2="1060.31" y2="745.502" gradientUnits="userSpaceOnUse">
<stop stop-color="#FF1CF7"/>
<stop offset="1" stop-color="#00F0FF"/>
</linearGradient>
<linearGradient id="paint45_linear_3_108" x1="449.679" y1="342.186" x2="1023.07" y2="758.777" gradientUnits="userSpaceOnUse">
<stop stop-color="#FF1CF7"/>
<stop offset="1" stop-color="#00F0FF"/>
</linearGradient>
<linearGradient id="paint46_linear_3_108" x1="442.61" y1="331.506" x2="985.346" y2="771.005" gradientUnits="userSpaceOnUse">
<stop stop-color="#FF1CF7"/>
<stop offset="1" stop-color="#00F0FF"/>
</linearGradient>
<linearGradient id="paint47_linear_3_108" x1="435.928" y1="321.814" x2="947.207" y2="782.172" gradientUnits="userSpaceOnUse">
<stop stop-color="#FF1CF7"/>
<stop offset="1" stop-color="#00F0FF"/>
</linearGradient>
<linearGradient id="paint48_linear_3_108" x1="429.572" y1="313.12" x2="908.719" y2="792.267" gradientUnits="userSpaceOnUse">
<stop stop-color="#FF1CF7"/>
<stop offset="1" stop-color="#00F0FF"/>
</linearGradient>
<linearGradient id="paint49_linear_3_108" x1="423.478" y1="305.428" x2="869.949" y2="801.284" gradientUnits="userSpaceOnUse">
<stop stop-color="#FF1CF7"/>
<stop offset="1" stop-color="#00F0FF"/>
</linearGradient>
<linearGradient id="paint50_linear_3_108" x1="417.585" y1="298.741" x2="830.963" y2="809.219" gradientUnits="userSpaceOnUse">
<stop stop-color="#FF1CF7"/>
<stop offset="1" stop-color="#00F0FF"/>
</linearGradient>
<linearGradient id="paint51_linear_3_108" x1="411.832" y1="293.058" x2="791.827" y2="816.076" gradientUnits="userSpaceOnUse">
<stop stop-color="#FF1CF7"/>
<stop offset="1" stop-color="#00F0FF"/>
</linearGradient>
<linearGradient id="paint52_linear_3_108" x1="406.157" y1="288.374" x2="752.606" y2="821.86" gradientUnits="userSpaceOnUse">
<stop stop-color="#FF1CF7"/>
<stop offset="1" stop-color="#00F0FF"/>
</linearGradient>
<linearGradient id="paint53_linear_3_108" x1="400.5" y1="284.68" x2="713.366" y2="826.579" gradientUnits="userSpaceOnUse">
<stop stop-color="#FF1CF7"/>
<stop offset="1" stop-color="#00F0FF"/>
</linearGradient>
<linearGradient id="paint54_linear_3_108" x1="394.803" y1="281.963" x2="674.169" y2="830.248" gradientUnits="userSpaceOnUse">
<stop stop-color="#FF1CF7"/>
<stop offset="1" stop-color="#00F0FF"/>
</linearGradient>
<linearGradient id="paint55_linear_3_108" x1="389.009" y1="280.208" x2="635.076" y2="832.882" gradientUnits="userSpaceOnUse">
<stop stop-color="#FF1CF7"/>
<stop offset="1" stop-color="#00F0FF"/>
</linearGradient>
<linearGradient id="paint56_linear_3_108" x1="383.062" y1="279.395" x2="596.148" y2="834.503" gradientUnits="userSpaceOnUse">
<stop stop-color="#FF1CF7"/>
<stop offset="1" stop-color="#00F0FF"/>
</linearGradient>
<linearGradient id="paint57_linear_3_108" x1="376.908" y1="279.504" x2="557.443" y2="835.134" gradientUnits="userSpaceOnUse">
<stop stop-color="#FF1CF7"/>
<stop offset="1" stop-color="#00F0FF"/>
</linearGradient>
<linearGradient id="paint58_linear_3_108" x1="370.494" y1="280.509" x2="519.016" y2="834.802" gradientUnits="userSpaceOnUse">
<stop stop-color="#FF1CF7"/>
<stop offset="1" stop-color="#00F0FF"/>
</linearGradient>
<linearGradient id="paint59_linear_3_108" x1="363.771" y1="282.381" x2="480.923" y2="833.538" gradientUnits="userSpaceOnUse">
<stop stop-color="#FF1CF7"/>
<stop offset="1" stop-color="#00F0FF"/>
</linearGradient>
<linearGradient id="paint60_linear_3_108" x1="356.69" y1="285.09" x2="443.213" y2="831.373" gradientUnits="userSpaceOnUse">
<stop stop-color="#FF1CF7"/>
<stop offset="1" stop-color="#00F0FF"/>
</linearGradient>
<linearGradient id="paint61_linear_3_108" x1="349.207" y1="288.602" x2="405.936" y2="828.345" gradientUnits="userSpaceOnUse">
<stop stop-color="#FF1CF7"/>
<stop offset="1" stop-color="#00F0FF"/>
</linearGradient>
<linearGradient id="paint62_linear_3_108" x1="341.278" y1="292.882" x2="369.139" y2="824.492" gradientUnits="userSpaceOnUse">
<stop stop-color="#FF1CF7"/>
<stop offset="1" stop-color="#00F0FF"/>
</linearGradient>
<linearGradient id="paint63_linear_3_108" x1="332.863" y1="297.892" x2="332.863" y2="819.854" gradientUnits="userSpaceOnUse">
<stop stop-color="#FF1CF7"/>
<stop offset="1" stop-color="#00F0FF"/>
</linearGradient>
<linearGradient id="paint64_linear_3_108" x1="323.925" y1="303.592" x2="297.151" y2="814.476" gradientUnits="userSpaceOnUse">
<stop stop-color="#FF1CF7"/>
<stop offset="1" stop-color="#00F0FF"/>
</linearGradient>
<linearGradient id="paint65_linear_3_108" x1="314.429" y1="309.938" x2="262.038" y2="808.401" gradientUnits="userSpaceOnUse">
<stop stop-color="#FF1CF7"/>
<stop offset="1" stop-color="#00F0FF"/>
</linearGradient>
<linearGradient id="paint66_linear_3_108" x1="304.343" y1="316.889" x2="227.56" y2="801.677" gradientUnits="userSpaceOnUse">
<stop stop-color="#FF1CF7"/>
<stop offset="1" stop-color="#00F0FF"/>
</linearGradient>
<linearGradient id="paint67_linear_3_108" x1="293.638" y1="324.398" x2="193.746" y2="794.353" gradientUnits="userSpaceOnUse">
<stop stop-color="#FF1CF7"/>
<stop offset="1" stop-color="#00F0FF"/>
</linearGradient>
<linearGradient id="paint68_linear_3_108" x1="282.289" y1="332.418" x2="160.625" y2="786.478" gradientUnits="userSpaceOnUse">
<stop stop-color="#FF1CF7"/>
<stop offset="1" stop-color="#00F0FF"/>
</linearGradient>
</defs>
</svg>
