<svg width="17" height="20" viewBox="0 0 17 20" fill="none" xmlns="http://www.w3.org/2000/svg">
<path d="M17 19.55L12.5375 15.3L13.073 17H2.125C1.56141 17 1.02091 16.7761 0.622397 16.3776C0.223883 15.9791 0 15.4386 0 14.875V2.125C0 1.56141 0.223883 1.02091 0.622397 0.622397C1.02091 0.223883 1.56141 0 2.125 0H14.875C15.4386 0 15.9791 0.223883 16.3776 0.622397C16.7761 1.02091 17 1.56141 17 2.125V19.55ZM8.49999 4.92999C6.22199 4.92999 4.62399 5.90749 4.62399 5.90749C5.49949 5.12549 7.02949 4.67499 7.02949 4.67499L6.88499 4.53049C5.44849 4.55599 4.14799 5.55049 4.14799 5.55049C2.686 8.60199 2.7795 11.237 2.7795 11.237C3.9695 12.7755 5.73749 12.665 5.73749 12.665L6.34099 11.9C5.27849 11.6705 4.60699 10.727 4.60699 10.727C4.60699 10.727 6.20499 11.815 8.49999 11.815C10.795 11.815 12.393 10.727 12.393 10.727C12.393 10.727 11.7215 11.6705 10.659 11.9L11.2625 12.665C11.2625 12.665 13.0305 12.7755 14.2205 11.237C14.2205 11.237 14.314 8.60199 12.852 5.55049C12.852 5.55049 11.5515 4.55599 10.115 4.53049L9.97049 4.67499C9.97049 4.67499 11.5005 5.12549 12.376 5.90749C12.376 5.90749 10.778 4.92999 8.49999 4.92999ZM6.74049 8.15149C7.29299 8.15149 7.74349 8.63599 7.73499 9.23099C7.73499 9.81749 7.29299 10.3105 6.74049 10.3105C6.19649 10.3105 5.75449 9.81749 5.75449 9.23099C5.75449 8.63599 6.18799 8.15149 6.74049 8.15149ZM10.285 8.15149C10.8375 8.15149 11.2795 8.63599 11.2795 9.23099C11.2795 9.81749 10.8375 10.3105 10.285 10.3105C9.74099 10.3105 9.29899 9.81749 9.29899 9.23099C9.29899 8.63599 9.73249 8.15149 10.285 8.15149Z" fill="white"/>
</svg>
