<svg width="17" height="17" viewBox="0 0 17 17" fill="none" xmlns="http://www.w3.org/2000/svg">
<path d="M10.625 11.3985C10.693 11.475 10.693 11.6365 10.625 11.73C10.0045 12.325 8.84849 12.376 8.49999 12.376C8.16849 12.376 7.01249 12.325 6.40899 11.73C6.32399 11.6365 6.32399 11.475 6.40899 11.3985C6.50249 11.3135 6.64699 11.3135 6.73199 11.3985C7.12299 11.7895 7.93049 11.9 8.49999 11.9C9.08649 11.9 9.91099 11.7895 10.285 11.3985C10.3785 11.3135 10.523 11.3135 10.625 11.3985ZM7.43749 9.38399C7.43749 8.89949 7.03799 8.49999 6.55349 8.49999C6.06899 8.49999 5.66949 8.89949 5.66949 9.38399C5.66949 9.86849 6.06899 10.2765 6.55349 10.268C7.03799 10.268 7.43749 9.86849 7.43749 9.38399ZM10.4465 8.49999C9.96199 8.49999 9.56249 8.92499 9.56249 9.39249C9.56249 9.85999 9.96199 10.2765 10.4465 10.2765C10.931 10.2765 11.3305 9.86849 11.3305 9.39249C11.3305 8.92499 10.931 8.49999 10.4465 8.49999ZM17 8.49999C17 13.175 13.175 17 8.49999 17C3.825 17 0 13.175 0 8.49999C0 3.825 3.825 0 8.49999 0C13.175 0 17 3.825 17 8.49999ZM14.1695 8.49999C14.1695 7.81149 13.6 7.25899 12.937 7.25899C12.597 7.25899 12.291 7.39499 12.07 7.60749C11.22 6.99549 10.0555 6.60449 8.75499 6.55349L9.32449 3.893L11.169 4.29249C11.186 4.75999 11.577 5.13399 12.053 5.13399C12.5375 5.13399 12.937 4.73449 12.937 4.24999C12.937 3.7655 12.5375 3.366 12.053 3.366C11.7045 3.366 11.3985 3.57 11.2625 3.8675L9.19699 3.4255C9.13749 3.4 9.07799 3.4255 9.03549 3.4595C8.98449 3.4935 8.95899 3.5445 8.95049 3.604L8.32149 6.56199C7.00399 6.60449 5.81399 6.99549 4.94699 7.61599C4.72599 7.40349 4.41999 7.27599 4.08849 7.27599C3.4 7.27599 2.8475 7.82849 2.8475 8.49999C2.8475 9.01849 3.1535 9.44349 3.5785 9.63899C3.5615 9.77499 3.553 9.87699 3.553 10.013C3.553 11.9 5.77149 13.4725 8.49999 13.4725C11.2455 13.4725 13.4725 11.9255 13.4725 10.013C13.4725 9.89399 13.464 9.77499 13.4385 9.63899C13.8635 9.44349 14.1695 9.00999 14.1695 8.49999Z" fill="white"/>
</svg>
