<svg width="18" height="15" viewBox="0 0 18 15" fill="none" xmlns="http://www.w3.org/2000/svg">
<path d="M18 1.72084C17.3375 2.02199 16.6233 2.21988 15.8834 2.31453C16.6405 1.85851 17.2256 1.13575 17.5009 0.26673C16.7868 0.69694 15.9952 0.998087 15.1606 1.17017C14.4809 0.43021 13.5258 0 12.4417 0C10.4197 0 8.76768 1.65201 8.76768 3.6912C8.76768 3.98374 8.8021 4.26768 8.86233 4.53441C5.79923 4.37954 3.0717 2.90822 1.25621 0.679732C0.937858 1.2218 0.75717 1.85851 0.75717 2.52963C0.75717 3.81166 1.40248 4.94741 2.40057 5.59273C1.78967 5.59273 1.2218 5.42065 0.722753 5.16252V5.18833C0.722753 6.978 1.99617 8.47514 3.6826 8.8107C3.14116 8.95887 2.57274 8.97949 2.02199 8.87093C2.25568 9.60442 2.71337 10.2462 3.3307 10.7061C3.94803 11.1661 4.69398 11.4209 5.46367 11.435C4.15895 12.4679 2.54168 13.0262 0.877628 13.0182C0.585085 13.0182 0.292543 13.0009 0 12.9665C1.6348 14.0162 3.57935 14.6271 5.66156 14.6271C12.4417 14.6271 16.1673 8.99999 16.1673 4.12141C16.1673 3.95793 16.1673 3.80306 16.1587 3.63958C16.8814 3.12332 17.5009 2.46941 18 1.72084Z" fill="white"/>
</svg>
