<svg width="17" height="17" viewBox="0 0 17 17" fill="none" xmlns="http://www.w3.org/2000/svg">
<path d="M8.49999 0C7.38375 0 6.27845 0.219859 5.24718 0.647023C4.21592 1.07419 3.27889 1.70029 2.48959 2.48959C0.895532 4.08365 0 6.24565 0 8.49999C0 12.257 2.4395 15.4445 5.81399 16.575C6.23899 16.643 6.37499 16.3795 6.37499 16.15V14.7135C4.0205 15.2235 3.519 13.5745 3.519 13.5745C3.128 12.5885 2.5755 12.325 2.5755 12.325C1.802 11.798 2.635 11.815 2.635 11.815C3.485 11.8745 3.9355 12.6905 3.9355 12.6905C4.67499 13.9825 5.92449 13.6 6.40899 13.396C6.48549 12.8435 6.70649 12.4695 6.94449 12.257C5.05749 12.0445 3.077 11.3135 3.077 8.07499C3.077 7.13149 3.4 6.37499 3.9525 5.77149C3.8675 5.55899 3.57 4.67499 4.03749 3.5275C4.03749 3.5275 4.75149 3.298 6.37499 4.39449C7.04649 4.2075 7.77749 4.114 8.49999 4.114C9.22249 4.114 9.95349 4.2075 10.625 4.39449C12.2485 3.298 12.9625 3.5275 12.9625 3.5275C13.43 4.67499 13.1325 5.55899 13.0475 5.77149C13.6 6.37499 13.923 7.13149 13.923 8.07499C13.923 11.322 11.934 12.036 10.0385 12.2485C10.3445 12.512 10.625 13.0305 10.625 13.821V16.15C10.625 16.3795 10.761 16.6515 11.1945 16.575C14.569 15.436 17 12.257 17 8.49999C17 7.38376 16.7801 6.27845 16.353 5.24718C15.9258 4.21592 15.2997 3.27889 14.5104 2.48959C13.7211 1.70029 12.7841 1.07419 11.7528 0.647023C10.7215 0.219859 9.61622 0 8.49999 0Z" fill="white"/>
</svg>
